<mxfile host="app.diagrams.net" modified="2023-09-14T07:17:51.541Z" agent="Mozilla/5.0 (Windows NT 10.0; Win64; x64) AppleWebKit/537.36 (KHTML, like Gecko) Chrome/116.0.0.0 Safari/537.36" etag="I5DmGy_YRPLXXrXSFyOW" version="21.6.9" type="github">
  <diagram name="페이지-1" id="UMMKx6atZJX54MsAfHcL">
    <mxGraphModel dx="1436" dy="867" grid="1" gridSize="10" guides="1" tooltips="1" connect="1" arrows="1" fold="1" page="1" pageScale="1" pageWidth="827" pageHeight="1169" math="0" shadow="0">
      <root>
        <mxCell id="0" />
        <mxCell id="1" parent="0" />
        <mxCell id="uFxkD-6V-J9LuEE1s1P_-1" value="" style="edgeStyle=orthogonalEdgeStyle;rounded=0;orthogonalLoop=1;jettySize=auto;html=1;" edge="1" parent="1" source="uFxkD-6V-J9LuEE1s1P_-2" target="uFxkD-6V-J9LuEE1s1P_-4">
          <mxGeometry relative="1" as="geometry" />
        </mxCell>
        <mxCell id="uFxkD-6V-J9LuEE1s1P_-2" value="Tomcat&lt;br&gt;Start" style="rounded=1;whiteSpace=wrap;html=1;" vertex="1" parent="1">
          <mxGeometry x="30" y="30" width="90" height="40" as="geometry" />
        </mxCell>
        <mxCell id="uFxkD-6V-J9LuEE1s1P_-3" value="Filter" style="rounded=1;whiteSpace=wrap;html=1;" vertex="1" parent="1">
          <mxGeometry x="30" y="90" width="90" height="30" as="geometry" />
        </mxCell>
        <mxCell id="uFxkD-6V-J9LuEE1s1P_-4" value="Dispatch" style="rounded=1;whiteSpace=wrap;html=1;" vertex="1" parent="1">
          <mxGeometry x="30" y="170" width="90" height="50" as="geometry" />
        </mxCell>
        <mxCell id="uFxkD-6V-J9LuEE1s1P_-5" value="" style="endArrow=none;html=1;rounded=0;entryX=0.5;entryY=1;entryDx=0;entryDy=0;exitX=0.5;exitY=0;exitDx=0;exitDy=0;" edge="1" parent="1" source="uFxkD-6V-J9LuEE1s1P_-3" target="uFxkD-6V-J9LuEE1s1P_-2">
          <mxGeometry width="50" height="50" relative="1" as="geometry">
            <mxPoint x="60" y="110" as="sourcePoint" />
            <mxPoint x="110" y="60" as="targetPoint" />
          </mxGeometry>
        </mxCell>
        <mxCell id="uFxkD-6V-J9LuEE1s1P_-6" value="" style="edgeStyle=orthogonalEdgeStyle;rounded=0;orthogonalLoop=1;jettySize=auto;html=1;" edge="1" parent="1" source="uFxkD-6V-J9LuEE1s1P_-7" target="uFxkD-6V-J9LuEE1s1P_-14">
          <mxGeometry relative="1" as="geometry">
            <Array as="points">
              <mxPoint x="310" y="200" />
              <mxPoint x="310" y="200" />
            </Array>
          </mxGeometry>
        </mxCell>
        <mxCell id="uFxkD-6V-J9LuEE1s1P_-7" value="Controller" style="swimlane;whiteSpace=wrap;html=1;" vertex="1" parent="1">
          <mxGeometry x="150" y="140" width="140" height="200" as="geometry" />
        </mxCell>
        <mxCell id="uFxkD-6V-J9LuEE1s1P_-8" value="" style="group" vertex="1" connectable="0" parent="uFxkD-6V-J9LuEE1s1P_-7">
          <mxGeometry x="10" y="30" width="120" height="100" as="geometry" />
        </mxCell>
        <mxCell id="uFxkD-6V-J9LuEE1s1P_-9" value="{user name,&lt;br&gt;password,&lt;br&gt;email &lt;br&gt;...}" style="whiteSpace=wrap;html=1;" vertex="1" parent="uFxkD-6V-J9LuEE1s1P_-8">
          <mxGeometry y="30" width="120" height="70" as="geometry" />
        </mxCell>
        <mxCell id="uFxkD-6V-J9LuEE1s1P_-10" value="Body data" style="whiteSpace=wrap;html=1;" vertex="1" parent="uFxkD-6V-J9LuEE1s1P_-8">
          <mxGeometry width="120" height="30" as="geometry" />
        </mxCell>
        <mxCell id="uFxkD-6V-J9LuEE1s1P_-11" value="Go to view" style="rounded=0;whiteSpace=wrap;html=1;" vertex="1" parent="uFxkD-6V-J9LuEE1s1P_-7">
          <mxGeometry y="170" width="140" height="20" as="geometry" />
        </mxCell>
        <mxCell id="uFxkD-6V-J9LuEE1s1P_-57" value="JDBC 연결" style="rounded=0;whiteSpace=wrap;html=1;" vertex="1" parent="uFxkD-6V-J9LuEE1s1P_-7">
          <mxGeometry y="140" width="140" height="20" as="geometry" />
        </mxCell>
        <mxCell id="uFxkD-6V-J9LuEE1s1P_-12" value="" style="endArrow=classic;html=1;rounded=0;exitX=1;exitY=0.5;exitDx=0;exitDy=0;" edge="1" parent="1" source="uFxkD-6V-J9LuEE1s1P_-4">
          <mxGeometry width="50" height="50" relative="1" as="geometry">
            <mxPoint x="500" y="350" as="sourcePoint" />
            <mxPoint x="150" y="195" as="targetPoint" />
          </mxGeometry>
        </mxCell>
        <mxCell id="uFxkD-6V-J9LuEE1s1P_-13" value="" style="edgeStyle=orthogonalEdgeStyle;rounded=0;orthogonalLoop=1;jettySize=auto;html=1;" edge="1" parent="1" source="uFxkD-6V-J9LuEE1s1P_-14" target="uFxkD-6V-J9LuEE1s1P_-17">
          <mxGeometry relative="1" as="geometry">
            <Array as="points">
              <mxPoint x="510" y="190" />
              <mxPoint x="510" y="190" />
            </Array>
          </mxGeometry>
        </mxCell>
        <mxCell id="uFxkD-6V-J9LuEE1s1P_-14" value="Service" style="swimlane;whiteSpace=wrap;html=1;" vertex="1" parent="1">
          <mxGeometry x="360" y="140" width="140" height="200" as="geometry" />
        </mxCell>
        <mxCell id="uFxkD-6V-J9LuEE1s1P_-15" value="Transaction 실행" style="whiteSpace=wrap;html=1;" vertex="1" parent="uFxkD-6V-J9LuEE1s1P_-14">
          <mxGeometry y="40" width="140" height="30" as="geometry" />
        </mxCell>
        <mxCell id="uFxkD-6V-J9LuEE1s1P_-16" value="응답 OK, &lt;br&gt;Transaction 종료" style="rounded=0;whiteSpace=wrap;html=1;" vertex="1" parent="uFxkD-6V-J9LuEE1s1P_-14">
          <mxGeometry y="160" width="140" height="40" as="geometry" />
        </mxCell>
        <mxCell id="uFxkD-6V-J9LuEE1s1P_-17" value="JPA repository" style="swimlane;whiteSpace=wrap;html=1;" vertex="1" parent="1">
          <mxGeometry x="550" y="140" width="140" height="200" as="geometry" />
        </mxCell>
        <mxCell id="uFxkD-6V-J9LuEE1s1P_-18" value="Insert 해줘" style="whiteSpace=wrap;html=1;" vertex="1" parent="uFxkD-6V-J9LuEE1s1P_-17">
          <mxGeometry y="30" width="140" height="30" as="geometry" />
        </mxCell>
        <mxCell id="uFxkD-6V-J9LuEE1s1P_-19" value="insert(?,?,?,..)into&lt;br&gt;usertable;" style="whiteSpace=wrap;html=1;" vertex="1" parent="uFxkD-6V-J9LuEE1s1P_-17">
          <mxGeometry y="60" width="140" height="60" as="geometry" />
        </mxCell>
        <mxCell id="uFxkD-6V-J9LuEE1s1P_-20" value="응답 OK" style="rounded=0;whiteSpace=wrap;html=1;" vertex="1" parent="uFxkD-6V-J9LuEE1s1P_-17">
          <mxGeometry y="160" width="140" height="20" as="geometry" />
        </mxCell>
        <mxCell id="uFxkD-6V-J9LuEE1s1P_-58" style="edgeStyle=orthogonalEdgeStyle;rounded=0;orthogonalLoop=1;jettySize=auto;html=1;" edge="1" parent="1" source="uFxkD-6V-J9LuEE1s1P_-21">
          <mxGeometry relative="1" as="geometry">
            <mxPoint x="1150" y="260" as="targetPoint" />
          </mxGeometry>
        </mxCell>
        <mxCell id="uFxkD-6V-J9LuEE1s1P_-21" value="영속성 Context" style="swimlane;whiteSpace=wrap;html=1;" vertex="1" parent="1">
          <mxGeometry x="740" y="140" width="140" height="240" as="geometry" />
        </mxCell>
        <mxCell id="uFxkD-6V-J9LuEE1s1P_-24" value="응답 OK" style="rounded=0;whiteSpace=wrap;html=1;" vertex="1" parent="uFxkD-6V-J9LuEE1s1P_-21">
          <mxGeometry y="200" width="140" height="30" as="geometry" />
        </mxCell>
        <mxCell id="uFxkD-6V-J9LuEE1s1P_-30" value="View Resolver" style="swimlane;whiteSpace=wrap;html=1;" vertex="1" parent="1">
          <mxGeometry x="10" y="430" width="120" height="200" as="geometry" />
        </mxCell>
        <mxCell id="uFxkD-6V-J9LuEE1s1P_-31" value="&lt;h3&gt;페이지를 만들어서 응답&lt;/h3&gt;" style="text;html=1;strokeColor=none;fillColor=none;align=center;verticalAlign=middle;whiteSpace=wrap;rounded=0;" vertex="1" parent="uFxkD-6V-J9LuEE1s1P_-30">
          <mxGeometry x="30" y="60" width="60" height="100" as="geometry" />
        </mxCell>
        <mxCell id="uFxkD-6V-J9LuEE1s1P_-32" value="Session" style="swimlane;whiteSpace=wrap;html=1;startSize=20;" vertex="1" parent="1">
          <mxGeometry x="180" y="430" width="160" height="200" as="geometry" />
        </mxCell>
        <mxCell id="uFxkD-6V-J9LuEE1s1P_-34" value="Interceptor" style="swimlane;whiteSpace=wrap;html=1;" vertex="1" parent="1">
          <mxGeometry x="510" y="430" width="80" height="160" as="geometry" />
        </mxCell>
        <mxCell id="uFxkD-6V-J9LuEE1s1P_-62" style="edgeStyle=orthogonalEdgeStyle;rounded=0;orthogonalLoop=1;jettySize=auto;html=1;entryX=1;entryY=0.75;entryDx=0;entryDy=0;exitX=0.5;exitY=1;exitDx=0;exitDy=0;" edge="1" parent="1" source="uFxkD-6V-J9LuEE1s1P_-61" target="uFxkD-6V-J9LuEE1s1P_-24">
          <mxGeometry relative="1" as="geometry">
            <Array as="points">
              <mxPoint x="1220" y="290" />
              <mxPoint x="1015" y="290" />
              <mxPoint x="1015" y="362" />
            </Array>
          </mxGeometry>
        </mxCell>
        <mxCell id="uFxkD-6V-J9LuEE1s1P_-36" value="DB" style="swimlane;whiteSpace=wrap;html=1;startSize=23;" vertex="1" parent="1">
          <mxGeometry x="1150" y="140" width="140" height="200" as="geometry" />
        </mxCell>
        <mxCell id="uFxkD-6V-J9LuEE1s1P_-61" value="User 정보" style="rounded=0;whiteSpace=wrap;html=1;" vertex="1" parent="uFxkD-6V-J9LuEE1s1P_-36">
          <mxGeometry x="10" y="95" width="120" height="40" as="geometry" />
        </mxCell>
        <mxCell id="uFxkD-6V-J9LuEE1s1P_-39" value="&lt;b&gt;&lt;font color=&quot;#ff0000&quot; style=&quot;background-color: rgb(255, 255, 255);&quot;&gt;사용자가 회원가입(Insert)을&amp;nbsp; &amp;nbsp;요청&lt;br&gt;request = http://localhost:8000/join&lt;br&gt;Body : username, password&lt;/font&gt;&lt;/b&gt;" style="text;html=1;strokeColor=none;fillColor=none;align=center;verticalAlign=middle;whiteSpace=wrap;rounded=0;" vertex="1" parent="1">
          <mxGeometry x="130" y="10" width="360" height="70" as="geometry" />
        </mxCell>
        <mxCell id="uFxkD-6V-J9LuEE1s1P_-42" value="" style="endArrow=classic;html=1;rounded=0;" edge="1" parent="1" source="uFxkD-6V-J9LuEE1s1P_-20">
          <mxGeometry width="50" height="50" relative="1" as="geometry">
            <mxPoint x="470" y="220" as="sourcePoint" />
            <mxPoint x="500" y="310" as="targetPoint" />
          </mxGeometry>
        </mxCell>
        <mxCell id="uFxkD-6V-J9LuEE1s1P_-54" value="" style="edgeStyle=orthogonalEdgeStyle;rounded=0;orthogonalLoop=1;jettySize=auto;html=1;" edge="1" parent="1" source="uFxkD-6V-J9LuEE1s1P_-24" target="uFxkD-6V-J9LuEE1s1P_-20">
          <mxGeometry relative="1" as="geometry" />
        </mxCell>
        <mxCell id="uFxkD-6V-J9LuEE1s1P_-55" style="edgeStyle=orthogonalEdgeStyle;rounded=0;orthogonalLoop=1;jettySize=auto;html=1;" edge="1" parent="1" source="uFxkD-6V-J9LuEE1s1P_-18">
          <mxGeometry relative="1" as="geometry">
            <mxPoint x="740" y="185" as="targetPoint" />
          </mxGeometry>
        </mxCell>
        <mxCell id="uFxkD-6V-J9LuEE1s1P_-60" value="Insert" style="text;html=1;align=center;verticalAlign=middle;whiteSpace=wrap;rounded=0;labelBackgroundColor=#FFFFFF;" vertex="1" parent="1">
          <mxGeometry x="980" y="245" width="60" height="30" as="geometry" />
        </mxCell>
        <mxCell id="uFxkD-6V-J9LuEE1s1P_-68" style="edgeStyle=orthogonalEdgeStyle;rounded=0;orthogonalLoop=1;jettySize=auto;html=1;entryX=1;entryY=0.5;entryDx=0;entryDy=0;" edge="1" parent="1" source="uFxkD-6V-J9LuEE1s1P_-16" target="uFxkD-6V-J9LuEE1s1P_-11">
          <mxGeometry relative="1" as="geometry" />
        </mxCell>
        <mxCell id="uFxkD-6V-J9LuEE1s1P_-69" value="" style="endArrow=none;dashed=1;html=1;rounded=0;entryX=0.5;entryY=1;entryDx=0;entryDy=0;" edge="1" parent="1" target="uFxkD-6V-J9LuEE1s1P_-16">
          <mxGeometry width="50" height="50" relative="1" as="geometry">
            <mxPoint x="430" y="400" as="sourcePoint" />
            <mxPoint x="690" y="360" as="targetPoint" />
          </mxGeometry>
        </mxCell>
        <mxCell id="uFxkD-6V-J9LuEE1s1P_-70" value="Transaction 종료시 &lt;br&gt;Commit 이 된다." style="text;html=1;strokeColor=none;fillColor=none;align=center;verticalAlign=middle;whiteSpace=wrap;rounded=0;" vertex="1" parent="1">
          <mxGeometry x="350" y="400" width="160" height="30" as="geometry" />
        </mxCell>
      </root>
    </mxGraphModel>
  </diagram>
</mxfile>
